<svg width="50" height="50" viewBox="0 0 50 50" fill="none" xmlns="http://www.w3.org/2000/svg">
<g clip-path="url(#clip0_37_12)">
<path d="M22.9399 19.464C24.2839 19.464 25.3612 19.9227 26.1719 20.84C26.9825 21.736 27.3879 22.984 27.3879 24.584V37H22.3319V25.448C22.3319 23.9333 21.8519 23.176 20.8919 23.176C20.3585 23.176 19.8892 23.3573 19.4839 23.72C19.0785 24.0827 18.6839 24.6373 18.2999 25.384V37H13.2439V25.448C13.2439 23.9333 12.7639 23.176 11.8039 23.176C11.2919 23.176 10.8225 23.368 10.3959 23.752C9.99054 24.1147 9.59588 24.6587 9.21188 25.384V37H4.15588V20.008H8.57188L8.92388 21.992C9.58521 21.1387 10.3105 20.5093 11.0999 20.104C11.9105 19.6773 12.8279 19.464 13.8519 19.464C14.8119 19.464 15.6332 19.6987 16.3159 20.168C17.0199 20.6373 17.5319 21.2987 17.8519 22.152C18.5345 21.2347 19.2812 20.5627 20.0919 20.136C20.9239 19.688 21.8732 19.464 22.9399 19.464Z" fill="#141214"/>
<path d="M40.8831 14.28C43.7418 14.28 46.2058 15.1867 48.2751 17L45.6191 19.784C44.8298 19.1867 44.0938 18.76 43.4111 18.504C42.7498 18.2267 41.9818 18.088 41.1071 18.088C39.4645 18.088 38.1525 18.7387 37.1711 20.04C36.1898 21.32 35.6991 23.272 35.6991 25.896C35.6991 28.7333 36.0725 30.7493 36.8191 31.944C37.5658 33.1173 38.7285 33.704 40.3071 33.704C41.4165 33.704 42.4191 33.4587 43.3151 32.968V27.944H40.4351L39.9231 24.232H48.4031V35.208C47.2511 35.9547 45.9818 36.5307 44.5951 36.936C43.2085 37.3413 41.8218 37.544 40.4351 37.544C37.0645 37.544 34.5258 36.5627 32.8191 34.6C31.1125 32.616 30.2591 29.7147 30.2591 25.896C30.2591 23.464 30.7178 21.3733 31.6351 19.624C32.5738 17.8747 33.8431 16.552 35.4431 15.656C37.0645 14.7387 38.8778 14.28 40.8831 14.28Z" fill="#CB1C8D"/>
</g>
<defs>
<clipPath id="clip0_37_12">
<rect width="50" height="50" fill="white"/>
</clipPath>
</defs>
</svg>
