<svg width="290" height="255" viewBox="0 0 290 255" fill="none" xmlns="http://www.w3.org/2000/svg">
<path d="M0 10C0 4.47715 4.47715 0 10 0H280C285.523 0 290 4.47715 290 10V255H0V10Z" fill="#D8D8D8"/>
<path d="M0 101H290V153H0V101Z" fill="#FFDCF3"/>
<path d="M93.424 115.888L92.976 119.024H84.816V125.2H91.92V128.336H84.816V134.832H93.552V138H80.592V115.888H93.424Z" fill="#CB1C8D"/>
<path d="M115.072 120.592C116.438 120.592 117.526 121.061 118.336 122C119.147 122.917 119.552 124.165 119.552 125.744V138H115.456V126.384C115.456 124.571 114.838 123.664 113.6 123.664C112.939 123.664 112.363 123.877 111.872 124.304C111.403 124.709 110.912 125.349 110.4 126.224V138H106.304V126.384C106.304 124.571 105.686 123.664 104.448 123.664C103.766 123.664 103.179 123.877 102.688 124.304C102.219 124.709 101.728 125.349 101.216 126.224V138H97.1202V121.072H100.672L100.992 123.28C102.272 121.488 103.904 120.592 105.888 120.592C106.87 120.592 107.712 120.848 108.416 121.36C109.142 121.851 109.664 122.544 109.984 123.44C110.667 122.523 111.414 121.819 112.224 121.328C113.056 120.837 114.006 120.592 115.072 120.592Z" fill="#CB1C8D"/>
<path d="M141.076 120.592C143.038 120.592 144.574 121.381 145.684 122.96C146.793 124.517 147.348 126.704 147.348 129.52C147.348 131.269 147.07 132.827 146.516 134.192C145.982 135.536 145.214 136.592 144.212 137.36C143.209 138.107 142.025 138.48 140.66 138.48C139.742 138.48 138.9 138.288 138.132 137.904C137.385 137.52 136.734 136.976 136.18 136.272L135.924 138H132.308V114.288L136.404 113.84V122.992C136.958 122.224 137.63 121.637 138.42 121.232C139.23 120.805 140.116 120.592 141.076 120.592ZM139.54 135.408C140.649 135.408 141.513 134.939 142.132 134C142.75 133.04 143.06 131.547 143.06 129.52C143.06 127.387 142.772 125.883 142.196 125.008C141.62 124.112 140.809 123.664 139.764 123.664C138.462 123.664 137.342 124.432 136.404 125.968V133.456C136.766 134.075 137.214 134.555 137.748 134.896C138.302 135.237 138.9 135.408 139.54 135.408Z" fill="#CB1C8D"/>
<path d="M159.722 120.624C160.341 120.624 160.906 120.699 161.418 120.848L160.714 124.816C160.202 124.688 159.701 124.624 159.21 124.624C158.208 124.624 157.418 124.987 156.842 125.712C156.266 126.416 155.808 127.504 155.466 128.976V138H151.37V121.072H154.922L155.306 124.4C155.712 123.184 156.298 122.256 157.066 121.616C157.834 120.955 158.72 120.624 159.722 120.624Z" fill="#CB1C8D"/>
<path d="M176.883 129.136C176.883 129.349 176.851 129.904 176.787 130.8H166.163C166.291 132.443 166.718 133.616 167.443 134.32C168.169 135.024 169.129 135.376 170.323 135.376C171.07 135.376 171.774 135.259 172.435 135.024C173.097 134.768 173.801 134.384 174.547 133.872L176.243 136.208C174.366 137.723 172.275 138.48 169.971 138.48C167.39 138.48 165.395 137.691 163.987 136.112C162.601 134.533 161.907 132.379 161.907 129.648C161.907 127.92 162.206 126.373 162.803 125.008C163.401 123.621 164.265 122.544 165.395 121.776C166.526 120.987 167.87 120.592 169.427 120.592C171.795 120.592 173.63 121.349 174.931 122.864C176.233 124.357 176.883 126.448 176.883 129.136ZM172.819 127.952C172.819 124.987 171.721 123.504 169.523 123.504C168.521 123.504 167.731 123.877 167.155 124.624C166.601 125.349 166.27 126.523 166.163 128.144H172.819V127.952Z" fill="#CB1C8D"/>
<path d="M193.97 121.072L188.466 138H183.57L177.97 121.072H182.418L186.034 134.704L189.746 121.072H193.97Z" fill="#CB1C8D"/>
<path d="M210.196 129.136C210.196 129.349 210.164 129.904 210.1 130.8H199.476C199.604 132.443 200.03 133.616 200.756 134.32C201.481 135.024 202.441 135.376 203.636 135.376C204.382 135.376 205.086 135.259 205.748 135.024C206.409 134.768 207.113 134.384 207.86 133.872L209.556 136.208C207.678 137.723 205.588 138.48 203.284 138.48C200.702 138.48 198.708 137.691 197.3 136.112C195.913 134.533 195.22 132.379 195.22 129.648C195.22 127.92 195.518 126.373 196.116 125.008C196.713 123.621 197.577 122.544 198.708 121.776C199.838 120.987 201.182 120.592 202.74 120.592C205.108 120.592 206.942 121.349 208.244 122.864C209.545 124.357 210.196 126.448 210.196 129.136ZM206.132 127.952C206.132 124.987 205.033 123.504 202.836 123.504C201.833 123.504 201.044 123.877 200.468 124.624C199.913 125.349 199.582 126.523 199.476 128.144H206.132V127.952Z" fill="#CB1C8D"/>
</svg>
