<svg width="118" height="30" viewBox="0 0 118 30" fill="none" xmlns="http://www.w3.org/2000/svg">
<path d="M23.96 7.07998C25.64 7.07998 26.9866 7.65331 28 8.79998C29.0133 9.91998 29.52 11.48 29.52 13.48V29H23.2V14.56C23.2 12.6666 22.6 11.72 21.4 11.72C20.7333 11.72 20.1466 11.9466 19.64 12.4C19.1333 12.8533 18.64 13.5466 18.16 14.48V29H11.84V14.56C11.84 12.6666 11.24 11.72 10.04 11.72C9.39998 11.72 8.81331 11.96 8.27998 12.44C7.77331 12.8933 7.27998 13.5733 6.79998 14.48V29H0.47998V7.75998H5.99998L6.43998 10.24C7.26665 9.17331 8.17331 8.38664 9.15998 7.87998C10.1733 7.34664 11.32 7.07998 12.6 7.07998C13.8 7.07998 14.8266 7.37331 15.68 7.95998C16.56 8.54664 17.2 9.37331 17.6 10.44C18.4533 9.29331 19.3866 8.45331 20.4 7.91998C21.44 7.35998 22.6266 7.07998 23.96 7.07998Z" fill="black"/>
<path d="M51.149 22.84C51.149 23.64 51.2557 24.2266 51.469 24.6C51.709 24.9733 52.0824 25.2533 52.589 25.44L51.269 29.56C49.9624 29.4533 48.8957 29.1733 48.069 28.72C47.2424 28.24 46.6024 27.4933 46.149 26.48C44.7624 28.6133 42.629 29.68 39.749 29.68C37.6424 29.68 35.9624 29.0666 34.709 27.84C33.4557 26.6133 32.829 25.0133 32.829 23.04C32.829 20.72 33.6824 18.9466 35.389 17.72C37.0957 16.4933 39.5624 15.88 42.789 15.88H44.949V14.96C44.949 13.7066 44.6824 12.8533 44.149 12.4C43.6157 11.92 42.6824 11.68 41.349 11.68C40.6557 11.68 39.8157 11.7866 38.829 12C37.8424 12.1866 36.829 12.4533 35.789 12.8L34.349 8.63998C35.6824 8.13331 37.0424 7.74664 38.429 7.47998C39.8424 7.21331 41.149 7.07998 42.349 7.07998C45.389 7.07998 47.6157 7.70664 49.029 8.95998C50.4424 10.2133 51.149 12.0933 51.149 14.6V22.84ZM41.589 25.16C43.029 25.16 44.149 24.48 44.949 23.12V19.36H43.389C41.949 19.36 40.869 19.6133 40.149 20.12C39.4557 20.6266 39.109 21.4133 39.109 22.48C39.109 23.3333 39.3224 24 39.749 24.48C40.2024 24.9333 40.8157 25.16 41.589 25.16Z" fill="black"/>
<path d="M67.7031 7.15998C68.4764 7.15998 69.1831 7.25331 69.8231 7.43998L68.8231 13.56C68.0231 13.3733 67.3831 13.28 66.9031 13.28C65.6498 13.28 64.6898 13.72 64.0231 14.6C63.3831 15.4533 62.8764 16.7466 62.5031 18.48V29H56.1831V7.75998H61.7031L62.2231 11.88C62.7031 10.4133 63.4231 9.26664 64.3831 8.43998C65.3698 7.58664 66.4764 7.15998 67.7031 7.15998Z" fill="black"/>
<path d="M84.3578 0.599976C87.9311 0.599976 91.0111 1.73331 93.5978 3.99998L90.2778 7.47998C89.2911 6.73331 88.3711 6.19998 87.5178 5.87998C86.6911 5.53331 85.7311 5.35998 84.6378 5.35998C82.5845 5.35998 80.9445 6.17331 79.7178 7.79998C78.4911 9.39998 77.8778 11.84 77.8778 15.12C77.8778 18.6666 78.3445 21.1866 79.2778 22.68C80.2111 24.1466 81.6645 24.88 83.6378 24.88C85.0245 24.88 86.2778 24.5733 87.3978 23.96V17.68H83.7978L83.1578 13.04H93.7578V26.76C92.3178 27.6933 90.7311 28.4133 88.9978 28.92C87.2645 29.4266 85.5311 29.68 83.7978 29.68C79.5845 29.68 76.4111 28.4533 74.2778 26C72.1445 23.52 71.0778 19.8933 71.0778 15.12C71.0778 12.08 71.6511 9.46664 72.7978 7.27998C73.9711 5.09331 75.5578 3.43998 77.5578 2.31997C79.5845 1.17331 81.8511 0.599976 84.3578 0.599976Z" fill="#CB1C8D"/>
<path d="M107.219 7.07998C110.472 7.07998 113.019 8.07998 114.859 10.08C116.699 12.0533 117.619 14.8266 117.619 18.4C117.619 20.6666 117.192 22.6533 116.339 24.36C115.512 26.04 114.312 27.3466 112.739 28.28C111.192 29.2133 109.352 29.68 107.219 29.68C103.992 29.68 101.446 28.6933 99.579 26.72C97.739 24.72 96.819 21.9333 96.819 18.36C96.819 16.0933 97.2324 14.12 98.059 12.44C98.9124 10.7333 100.112 9.41331 101.659 8.47998C103.232 7.54664 105.086 7.07998 107.219 7.07998ZM107.219 11.72C105.939 11.72 104.979 12.2666 104.339 13.36C103.699 14.4266 103.379 16.0933 103.379 18.36C103.379 20.68 103.686 22.3733 104.299 23.44C104.939 24.5066 105.912 25.04 107.219 25.04C108.499 25.04 109.459 24.5066 110.099 23.44C110.739 22.3466 111.059 20.6666 111.059 18.4C111.059 16.08 110.739 14.3866 110.099 13.32C109.486 12.2533 108.526 11.72 107.219 11.72Z" fill="black"/>
</svg>
